<svg width="18" height="18" viewBox="0 0 18 18" fill="none" xmlns="http://www.w3.org/2000/svg">
<g clip-path="url(#clip0_7440_8)">
<path d="M15.5119 7.11855C11.4996 4.22252 1.85453 5.36393 1.5885 11.1175C1.58864 12.6453 2.47204 14.0655 4.07614 15.1164C4.40149 15.3295 5.53014 16.7594 16.5785 17.7153L16.1087 14.6804C18.7578 12.5257 18.6828 9.19599 15.5119 7.11855ZM5.29428 9.26467H8.47057V10.3234H5.29428V9.26467ZM14.2938 12.441H5.29428V11.3822H14.2938V12.441Z" fill="#9CA3BD"/>
<path d="M9.79397 4.50024C10.7191 4.50024 11.6256 4.59552 12.489 4.77841C11.4559 1.30958 6.442 0.550766 3.34321 1.68548L1.02438 0.284698L1.40846 2.76647C-0.462622 4.33482 -0.481644 6.64847 1.42434 8.23248C3.12637 5.6737 6.65453 4.50024 9.79397 4.50024Z" fill="#9CA3BD"/>
<rect x="4.81897" y="9.08075" width="10.3895" height="3.72014" fill="#9CA3BD"/>
</g>
<defs>
<clipPath id="clip0_7440_8">
<rect width="18" height="18" fill="white"/>
</clipPath>
</defs>
</svg>
