<svg width="17" height="16" viewBox="0 0 17 16" fill="none" xmlns="http://www.w3.org/2000/svg">
<path d="M9.16667 7.73333L10.8333 9.4C10.9556 9.52222 11.0167 9.67778 11.0167 9.86667C11.0167 10.0556 10.9556 10.2111 10.8333 10.3333C10.7111 10.4556 10.5556 10.5167 10.3667 10.5167C10.1778 10.5167 10.0222 10.4556 9.9 10.3333L8.03333 8.46667C7.96667 8.4 7.91667 8.32489 7.88333 8.24133C7.85 8.15822 7.83333 8.07222 7.83333 7.98333V5.33333C7.83333 5.14444 7.89733 4.986 8.02533 4.858C8.15289 4.73044 8.31111 4.66667 8.5 4.66667C8.68889 4.66667 8.84733 4.73044 8.97533 4.858C9.10289 4.986 9.16667 5.14444 9.16667 5.33333V7.73333ZM8.5 14C7.15556 14 5.95 13.6027 4.88333 12.808C3.81667 12.0138 3.1 10.9778 2.73333 9.7C2.67778 9.5 2.69733 9.31111 2.792 9.13333C2.88622 8.95556 3.03333 8.84444 3.23333 8.8C3.42222 8.75556 3.59178 8.79711 3.742 8.92467C3.89178 9.05267 3.99444 9.21111 4.05 9.4C4.33889 10.3778 4.89733 11.1667 5.72533 11.7667C6.55289 12.3667 7.47778 12.6667 8.5 12.6667C9.8 12.6667 10.9027 12.2138 11.808 11.308C12.7138 10.4027 13.1667 9.3 13.1667 8C13.1667 6.7 12.7138 5.59711 11.808 4.69133C10.9027 3.786 9.8 3.33333 8.5 3.33333C7.73333 3.33333 7.01667 3.51111 6.35 3.86667C5.68333 4.22222 5.12222 4.71111 4.66667 5.33333H5.83333C6.02222 5.33333 6.18067 5.39711 6.30867 5.52467C6.43622 5.65267 6.5 5.81111 6.5 6C6.5 6.18889 6.43622 6.34711 6.30867 6.47467C6.18067 6.60267 6.02222 6.66667 5.83333 6.66667H3.16667C2.97778 6.66667 2.81956 6.60267 2.692 6.47467C2.564 6.34711 2.5 6.18889 2.5 6V3.33333C2.5 3.14444 2.564 2.986 2.692 2.858C2.81956 2.73044 2.97778 2.66667 3.16667 2.66667C3.35556 2.66667 3.514 2.73044 3.642 2.858C3.76956 2.986 3.83333 3.14444 3.83333 3.33333V4.23333C4.4 3.52222 5.09178 2.97222 5.90867 2.58333C6.72511 2.19444 7.58889 2 8.5 2C9.33333 2 10.114 2.15822 10.842 2.47467C11.5696 2.79156 12.2029 3.21933 12.742 3.758C13.2807 4.29711 13.7084 4.93044 14.0253 5.658C14.3418 6.386 14.5 7.16667 14.5 8C14.5 8.83333 14.3418 9.61378 14.0253 10.3413C13.7084 11.0693 13.2807 11.7027 12.742 12.2413C12.2029 12.7804 11.5696 13.2084 10.842 13.5253C10.114 13.8418 9.33333 14 8.5 14Z" fill="#9CA3BD"/>
</svg>
