<svg xmlns="http://www.w3.org/2000/svg">
  <symbol id="chat" viewBox="0 0 18 18">
    <g clip-path="url(#clip0_7440_8)">
			<path d="M15.5119 7.11855C11.4996 4.22252 1.85453 5.36393 1.5885 11.1175C1.58864 12.6453 2.47204 14.0655 4.07614 15.1164C4.40149 15.3295 5.53014 16.7594 16.5785 17.7153L16.1087 14.6804C18.7578 12.5257 18.6828 9.19599 15.5119 7.11855ZM5.29428 9.26467H8.47057V10.3234H5.29428V9.26467ZM14.2938 12.441H5.29428V11.3822H14.2938V12.441Z"/>
			<path d="M9.79397 4.50024C10.7191 4.50024 11.6256 4.59552 12.489 4.77841C11.4559 1.30958 6.442 0.550766 3.34321 1.68548L1.02438 0.284698L1.40846 2.76647C-0.462622 4.33482 -0.481644 6.64847 1.42434 8.23248C3.12637 5.6737 6.65453 4.50024 9.79397 4.50024Z"/>
			<rect x="4.81897" y="9.08075" width="10.3895" height="3.72014"/>
		</g>
		<defs>
			<clipPath id="clip0_7440_8">
				<rect width="18" height="18" fill="white"/>
			</clipPath>
		</defs>
  </symbol>
  <symbol id="history" viewBox="0 0 17 16">
    <path d="M9.16667 7.73333L10.8333 9.4C10.9556 9.52222 11.0167 9.67778 11.0167 9.86667C11.0167 10.0556 10.9556 10.2111 10.8333 10.3333C10.7111 10.4556 10.5556 10.5167 10.3667 10.5167C10.1778 10.5167 10.0222 10.4556 9.9 10.3333L8.03333 8.46667C7.96667 8.4 7.91667 8.32489 7.88333 8.24133C7.85 8.15822 7.83333 8.07222 7.83333 7.98333V5.33333C7.83333 5.14444 7.89733 4.986 8.02533 4.858C8.15289 4.73044 8.31111 4.66667 8.5 4.66667C8.68889 4.66667 8.84733 4.73044 8.97533 4.858C9.10289 4.986 9.16667 5.14444 9.16667 5.33333V7.73333ZM8.5 14C7.15556 14 5.95 13.6027 4.88333 12.808C3.81667 12.0138 3.1 10.9778 2.73333 9.7C2.67778 9.5 2.69733 9.31111 2.792 9.13333C2.88622 8.95556 3.03333 8.84444 3.23333 8.8C3.42222 8.75556 3.59178 8.79711 3.742 8.92467C3.89178 9.05267 3.99444 9.21111 4.05 9.4C4.33889 10.3778 4.89733 11.1667 5.72533 11.7667C6.55289 12.3667 7.47778 12.6667 8.5 12.6667C9.8 12.6667 10.9027 12.2138 11.808 11.308C12.7138 10.4027 13.1667 9.3 13.1667 8C13.1667 6.7 12.7138 5.59711 11.808 4.69133C10.9027 3.786 9.8 3.33333 8.5 3.33333C7.73333 3.33333 7.01667 3.51111 6.35 3.86667C5.68333 4.22222 5.12222 4.71111 4.66667 5.33333H5.83333C6.02222 5.33333 6.18067 5.39711 6.30867 5.52467C6.43622 5.65267 6.5 5.81111 6.5 6C6.5 6.18889 6.43622 6.34711 6.30867 6.47467C6.18067 6.60267 6.02222 6.66667 5.83333 6.66667H3.16667C2.97778 6.66667 2.81956 6.60267 2.692 6.47467C2.564 6.34711 2.5 6.18889 2.5 6V3.33333C2.5 3.14444 2.564 2.986 2.692 2.858C2.81956 2.73044 2.97778 2.66667 3.16667 2.66667C3.35556 2.66667 3.514 2.73044 3.642 2.858C3.76956 2.986 3.83333 3.14444 3.83333 3.33333V4.23333C4.4 3.52222 5.09178 2.97222 5.90867 2.58333C6.72511 2.19444 7.58889 2 8.5 2C9.33333 2 10.114 2.15822 10.842 2.47467C11.5696 2.79156 12.2029 3.21933 12.742 3.758C13.2807 4.29711 13.7084 4.93044 14.0253 5.658C14.3418 6.386 14.5 7.16667 14.5 8C14.5 8.83333 14.3418 9.61378 14.0253 10.3413C13.7084 11.0693 13.2807 11.7027 12.742 12.2413C12.2029 12.7804 11.5696 13.2084 10.842 13.5253C10.114 13.8418 9.33333 14 8.5 14Z"/>
  </symbol>
  <symbol id="people" viewBox="0 0 16 16">
    <g clip-path="url(#clip0_7440_15)">
			<path d="M10.9091 7.27272C12.1164 7.27272 13.0836 6.29818 13.0836 5.09091C13.0836 3.88363 12.1164 2.90909 10.9091 2.90909C9.70182 2.90909 8.72727 3.88363 8.72727 5.09091C8.72727 6.29818 9.70182 7.27272 10.9091 7.27272ZM5.09091 7.27272C6.29818 7.27272 7.26545 6.29818 7.26545 5.09091C7.26545 3.88363 6.29818 2.90909 5.09091 2.90909C3.88364 2.90909 2.90909 3.88363 2.90909 5.09091C2.90909 6.29818 3.88364 7.27272 5.09091 7.27272ZM5.09091 8.72727C3.39636 8.72727 0 9.57818 0 11.2727V13.0909H10.1818V11.2727C10.1818 9.57818 6.78545 8.72727 5.09091 8.72727ZM10.9091 8.72727C10.6982 8.72727 10.4582 8.74182 10.2036 8.76363C11.0473 9.37454 11.6364 10.1964 11.6364 11.2727V13.0909H16V11.2727C16 9.57818 12.6036 8.72727 10.9091 8.72727Z"/>
		</g>
		<defs>
			<clipPath id="clip0_7440_15">
				<rect width="16" height="16" fill="white"/>
			</clipPath>
		</defs>
  </symbol>
  <symbol id="questions" viewBox="0 0 16 16">
    <path d="M6 0C2.692 0 0 2.69133 0 6V12H6C9.30867 12 12 9.30867 12 6C12 2.69133 9.30867 0 6 0ZM6.66667 9.38467H5.33333V8H6.66667V9.38467ZM6.96467 6.41933C6.83933 6.488 6.66667 6.79467 6.66667 7.00333V7.33333H5.33333V7.00333C5.33333 6.31467 5.758 5.56133 6.32067 5.25133C6.514 5.14533 6.71733 4.89467 6.65533 4.54067C6.60933 4.27933 6.38733 4.05733 6.12667 4.012C5.92267 3.97467 5.72533 4.02667 5.572 4.156C5.42 4.28267 5.33333 4.46933 5.33333 4.66733H4C4 4.07467 4.26067 3.516 4.71467 3.13467C5.16867 2.75333 5.766 2.592 6.35667 2.69933C7.16267 2.84 7.826 3.50267 7.968 4.31067C8.11667 5.15867 7.71333 6.006 6.964 6.42L6.96467 6.41933ZM16 10.6667V16H10.6667C8.69667 16 6.97667 14.9233 6.05333 13.3307C10.0607 13.302 13.302 10.0607 13.3307 6.05333C14.9233 6.97667 16 8.69667 16 10.6667Z"/>
  </symbol>
</svg>