<svg width="16" height="16" viewBox="0 0 16 16" fill="none" xmlns="http://www.w3.org/2000/svg">
<g clip-path="url(#clip0_7440_15)">
<path d="M10.9091 7.27272C12.1164 7.27272 13.0836 6.29818 13.0836 5.09091C13.0836 3.88363 12.1164 2.90909 10.9091 2.90909C9.70182 2.90909 8.72727 3.88363 8.72727 5.09091C8.72727 6.29818 9.70182 7.27272 10.9091 7.27272ZM5.09091 7.27272C6.29818 7.27272 7.26545 6.29818 7.26545 5.09091C7.26545 3.88363 6.29818 2.90909 5.09091 2.90909C3.88364 2.90909 2.90909 3.88363 2.90909 5.09091C2.90909 6.29818 3.88364 7.27272 5.09091 7.27272ZM5.09091 8.72727C3.39636 8.72727 0 9.57818 0 11.2727V13.0909H10.1818V11.2727C10.1818 9.57818 6.78545 8.72727 5.09091 8.72727ZM10.9091 8.72727C10.6982 8.72727 10.4582 8.74182 10.2036 8.76363C11.0473 9.37454 11.6364 10.1964 11.6364 11.2727V13.0909H16V11.2727C16 9.57818 12.6036 8.72727 10.9091 8.72727Z" fill="#9CA3BD"/>
</g>
<defs>
<clipPath id="clip0_7440_15">
<rect width="16" height="16" fill="white"/>
</clipPath>
</defs>
</svg>
