<svg width="16" height="16" viewBox="0 0 16 16" fill="none" xmlns="http://www.w3.org/2000/svg">
<path d="M6 0C2.692 0 0 2.69133 0 6V12H6C9.30867 12 12 9.30867 12 6C12 2.69133 9.30867 0 6 0ZM6.66667 9.38467H5.33333V8H6.66667V9.38467ZM6.96467 6.41933C6.83933 6.488 6.66667 6.79467 6.66667 7.00333V7.33333H5.33333V7.00333C5.33333 6.31467 5.758 5.56133 6.32067 5.25133C6.514 5.14533 6.71733 4.89467 6.65533 4.54067C6.60933 4.27933 6.38733 4.05733 6.12667 4.012C5.92267 3.97467 5.72533 4.02667 5.572 4.156C5.42 4.28267 5.33333 4.46933 5.33333 4.66733H4C4 4.07467 4.26067 3.516 4.71467 3.13467C5.16867 2.75333 5.766 2.592 6.35667 2.69933C7.16267 2.84 7.826 3.50267 7.968 4.31067C8.11667 5.15867 7.71333 6.006 6.964 6.42L6.96467 6.41933ZM16 10.6667V16H10.6667C8.69667 16 6.97667 14.9233 6.05333 13.3307C10.0607 13.302 13.302 10.0607 13.3307 6.05333C14.9233 6.97667 16 8.69667 16 10.6667Z" fill="#9CA3BD"/>
</svg>
