<svg width="18" height="18" viewBox="0 0 18 18" fill="none" xmlns="http://www.w3.org/2000/svg">
<path d="M9.87187 14.1351C10.3277 14.1351 10.5151 13.8313 10.509 13.4507C10.4859 12.0147 11.0446 11.2418 12.0537 12.2487C13.1699 13.3638 13.4006 14.1351 14.7563 14.1351H17.1557C19.0437 14.1351 17.3611 12.2432 16.0312 11.0106C14.7666 9.83828 14.7068 9.81026 15.7961 8.3999C17.148 6.64869 18.9157 4.39212 17.3519 4.39212C17.0458 4.39212 17.2645 4.39212 14.3662 4.39212C13.7867 4.39212 13.7444 4.7299 13.539 5.21611C12.7931 6.97227 11.3748 9.24977 10.8359 8.902C10.2717 8.53834 10.5298 7.30461 10.5733 5.16725C10.5849 4.60253 10.5815 4.2142 9.71799 4.01419C7.35816 3.46705 5.31305 4.54266 6.1485 4.69756C7.32624 4.91732 7.21314 7.25852 6.93896 8.35764C6.46055 10.2717 4.6621 6.84265 3.91232 5.13427C3.73155 4.72336 3.67663 4.39216 3.03064 4.39216C2.67689 4.39216 1.11459 4.39216 0.589491 4.39216C0.119241 4.39216 -0.111419 4.60749 0.0528665 5.0442C0.217046 5.48031 2.10617 9.69991 4.33971 12.107C6.40673 14.335 8.45011 14.1351 9.87187 14.1351Z" fill="#576081"/>
</svg>
